<svg viewBox="0 0 130 74" fill="none" xmlns="http://www.w3.org/2000/svg">
<g clip-path="url(#clip0_1_693)">
<path d="M49.3636 23.4932C47.1618 28.0528 41.6637 29.9689 37.0907 27.7671C32.5112 25.5652 30.596 20.0897 32.8043 15.5301C35.0126 10.9704 40.5042 9.05433 45.0772 11.2562C49.6502 13.4581 51.5719 18.9336 49.3636 23.4932Z" fill="#D4D600"/>
<path d="M0.5 0C0.5 0 22.5443 74.721 78.5149 20.2066C78.5149 20.2066 30.9607 59.4247 0.5 0Z" fill="#D4D600"/>
<path d="M75.8702 28.9687C75.8702 28.9687 28.088 62.484 18.2775 37.9256C18.2775 37.9256 -3.48019 89.6859 75.8702 28.9687Z" fill="#D4D600"/>
<path d="M105.673 40.3873H95.9081V45.5445H105.386V48.5712H95.9081V55.7355H105.673V58.7687H92.234V37.3605H105.673V40.3873Z" fill="white"/>
<path d="M118.61 37.3605L107.269 58.7687H110.995L113.549 53.8778H123.366L125.769 58.7687H129.554L118.617 37.3605H118.61ZM114.988 51.0264L118.552 44.174L121.952 51.0264H114.988Z" fill="white"/>
<path d="M88.2603 57.3982H88.7684V58.7687H84.0977V57.3982H84.6448V44.057L78.4889 52.1111L72.3264 44.057V57.3982H72.8736V58.7687H68.2093V57.3982H68.7109L68.7044 39.3675L67.2387 37.3475H71.7531L78.4889 47.1358L85.2181 37.3475H89.7325L88.2733 39.3675L88.2603 57.3982Z" fill="white"/>
<path d="M129.606 71.954H36.563V74H129.606V71.954Z" fill="#D4D600"/>
<path d="M40.0742 63.3673L42.4194 69.3624H41.5334L40.8755 67.5568H38.3349L37.6574 69.3624H36.8431L39.1818 63.3673H40.0677H40.0742ZM40.6279 66.8877L39.6247 64.0883H39.6117L38.589 66.8877H40.6279Z" fill="white"/>
<path d="M49.2984 63.3673V64.0428H46.152V65.9459H48.9141V66.6214H46.152V69.3689H45.3508V63.3738H49.2984V63.3673Z" fill="white"/>
<path d="M53.4154 69.4534C53.2265 69.4534 53.0832 69.4014 52.9725 69.2975C52.8617 69.1935 52.8096 69.0247 52.8096 68.7908C52.6142 69.0247 52.3862 69.1935 52.1256 69.2975C51.865 69.4014 51.5849 69.4534 51.2787 69.4534C51.0833 69.4534 50.8944 69.4339 50.725 69.3884C50.5491 69.3429 50.3993 69.278 50.2625 69.1806C50.1322 69.0831 50.028 68.9532 49.9498 68.8038C49.8717 68.6479 49.8326 68.4661 49.8326 68.2452C49.8326 67.9984 49.8717 67.7971 49.9629 67.6412C50.0475 67.4853 50.1583 67.3554 50.2951 67.258C50.4319 67.1605 50.5882 67.0891 50.7641 67.0371C50.94 66.9852 51.1224 66.9462 51.3048 66.9137C51.5002 66.8747 51.6891 66.8423 51.865 66.8293C52.0409 66.8098 52.1973 66.7838 52.3341 66.7448C52.4709 66.7124 52.5751 66.6539 52.6533 66.589C52.7314 66.5175 52.7705 66.4136 52.7705 66.2837C52.7705 66.1278 52.7379 65.9979 52.6793 65.907C52.6207 65.8095 52.5425 65.7381 52.4513 65.6861C52.3601 65.6407 52.2559 65.6017 52.1386 65.5887C52.0214 65.5692 51.9106 65.5627 51.7934 65.5627C51.4937 65.5627 51.2397 65.6212 51.0377 65.7316C50.8358 65.8485 50.725 66.0628 50.712 66.3811H49.9954C50.0085 66.1148 50.0606 65.8875 50.1648 65.6991C50.2625 65.5173 50.3993 65.3614 50.5687 65.2509C50.7381 65.1405 50.927 65.0561 51.1485 65.0041C51.3634 64.9522 51.5979 64.9262 51.839 64.9262C52.0344 64.9262 52.2298 64.9392 52.4253 64.9717C52.6142 64.9976 52.7901 65.0561 52.9529 65.147C53.1093 65.2315 53.233 65.3549 53.3307 65.5108C53.4285 65.6666 53.4741 65.868 53.4741 66.1213V68.3557C53.4741 68.5245 53.4806 68.6479 53.5001 68.7259C53.5197 68.8038 53.5848 68.8428 53.7021 68.8428C53.7672 68.8428 53.8389 68.8298 53.9235 68.8038V69.3559C53.7998 69.4274 53.6304 69.4663 53.4089 69.4663L53.4154 69.4534ZM52.4122 67.271C52.2689 67.3034 52.1126 67.3294 51.9562 67.3489C51.7934 67.3684 51.6305 67.3879 51.4742 67.4139C51.3113 67.4398 51.168 67.4788 51.0377 67.5373C50.9074 67.5957 50.8032 67.6737 50.725 67.7776C50.6403 67.8815 50.6013 68.0244 50.6013 68.1998C50.6013 68.3167 50.6273 68.4141 50.6729 68.4986C50.7185 68.5765 50.7837 68.6415 50.8553 68.6934C50.9335 68.7454 51.0247 68.7778 51.1224 68.8038C51.2266 68.8233 51.3309 68.8363 51.4416 68.8363C51.6761 68.8363 51.8781 68.8038 52.0474 68.7389C52.2168 68.6739 52.3536 68.596 52.4578 68.4986C52.5621 68.4011 52.6467 68.2907 52.6923 68.1803C52.7445 68.0634 52.7705 67.9595 52.7705 67.8555V67.1281C52.6793 67.193 52.5621 67.245 52.4187 67.2775L52.4122 67.271Z" fill="white"/>
<path d="M55.2655 65.0236V65.7121H55.285C55.5847 65.186 56.0537 64.9197 56.6986 64.9197C56.9853 64.9197 57.2263 64.9587 57.4152 65.0366C57.6041 65.1145 57.7605 65.225 57.8777 65.3614C57.995 65.5043 58.0797 65.6666 58.1253 65.8615C58.1709 66.0564 58.1969 66.2707 58.1969 66.5045V69.3624H57.4804V66.4201C57.4804 66.1538 57.4022 65.9394 57.2458 65.7836C57.0895 65.6277 56.8745 65.5497 56.5944 65.5497C56.3794 65.5497 56.1905 65.5822 56.0277 65.6472C55.8648 65.7121 55.7345 65.8095 55.6238 65.9329C55.5196 66.0564 55.4349 66.1992 55.3828 66.3681C55.3306 66.5305 55.3046 66.7124 55.3046 66.9072V69.3624H54.588V65.0236H55.2655Z" fill="white"/>
<path d="M61.1348 65.0236V65.6536H60.2684V68.3492C60.2684 68.4336 60.2684 68.4986 60.288 68.5505C60.301 68.6025 60.3271 68.6414 60.3662 68.6674C60.4052 68.6934 60.4574 68.7129 60.529 68.7259C60.6007 68.7324 60.6919 68.7389 60.8026 68.7389H61.1283V69.3689H60.5811C60.3922 69.3689 60.2359 69.3559 60.1056 69.3299C59.9753 69.304 59.8646 69.2585 59.7864 69.1935C59.7082 69.1221 59.6496 69.0312 59.604 68.9077C59.5649 68.7843 59.5454 68.622 59.5454 68.4206V65.6601H58.8027V65.0301H59.5454V63.7311H60.2619V65.0301H61.1283L61.1348 65.0236Z" fill="white"/>
<path d="M65.2714 69.4534C65.0825 69.4534 64.9392 69.4014 64.8285 69.2975C64.7177 69.1935 64.6656 69.0247 64.6656 68.7908C64.4702 69.0247 64.2422 69.1935 63.9816 69.2975C63.721 69.4014 63.4344 69.4534 63.1347 69.4534C62.9393 69.4534 62.7504 69.4339 62.581 69.3884C62.4051 69.3429 62.2553 69.278 62.125 69.1806C61.9947 69.0831 61.8905 68.9532 61.8123 68.8038C61.7342 68.6479 61.7016 68.4661 61.7016 68.2452C61.7016 67.9984 61.7407 67.7971 61.8254 67.6412C61.9101 67.4853 62.0208 67.3554 62.1576 67.258C62.2944 67.1605 62.4507 67.0891 62.6266 67.0371C62.8025 66.9852 62.9784 66.9462 63.1673 66.9137C63.3627 66.8747 63.5517 66.8423 63.7275 66.8293C63.9034 66.8098 64.0598 66.7838 64.1901 66.7448C64.3269 66.7124 64.4311 66.6539 64.5093 66.589C64.5874 66.5175 64.6265 66.4136 64.6265 66.2837C64.6265 66.1278 64.5939 65.9979 64.5353 65.907C64.4767 65.8095 64.3985 65.7381 64.3073 65.6861C64.2161 65.6407 64.1119 65.6017 63.9946 65.5887C63.8774 65.5692 63.7666 65.5627 63.6559 65.5627C63.3562 65.5627 63.1022 65.6212 62.9002 65.7316C62.6983 65.8485 62.5875 66.0628 62.5745 66.3811H61.8579C61.871 66.1148 61.9231 65.8875 62.0273 65.6991C62.1315 65.5173 62.2618 65.3614 62.4312 65.2509C62.6006 65.1405 62.796 65.0561 63.011 65.0041C63.2325 64.9522 63.4605 64.9262 63.7015 64.9262C63.8969 64.9262 64.0923 64.9392 64.2878 64.9717C64.4832 64.9976 64.6591 65.0561 64.8089 65.147C64.9653 65.2315 65.0955 65.3549 65.1867 65.5108C65.2845 65.6666 65.33 65.868 65.33 66.1213V68.3557C65.33 68.5245 65.3366 68.6479 65.3626 68.7259C65.3822 68.8038 65.4473 68.8428 65.5581 68.8428C65.6232 68.8428 65.6948 68.8298 65.7795 68.8038V69.3559C65.6558 69.4274 65.4864 69.4663 65.2649 69.4663L65.2714 69.4534ZM64.2617 67.271C64.1184 67.3034 63.9686 67.3294 63.8057 67.3489C63.6429 67.3684 63.4865 67.3879 63.3171 67.4139C63.1543 67.4398 63.011 67.4788 62.8807 67.5373C62.7504 67.5957 62.6462 67.6737 62.568 67.7776C62.4898 67.8815 62.4442 68.0244 62.4442 68.1998C62.4442 68.3167 62.4703 68.4141 62.5159 68.4986C62.5615 68.5765 62.6266 68.6415 62.7048 68.6934C62.783 68.7454 62.8677 68.7778 62.9719 68.8038C63.0761 68.8233 63.1803 68.8363 63.2911 68.8363C63.5256 68.8363 63.7275 68.8038 63.8969 68.7389C64.0663 68.6739 64.2031 68.596 64.3138 68.4986C64.4181 68.4011 64.4962 68.2907 64.5483 68.1803C64.6005 68.0634 64.6265 67.9595 64.6265 67.8555V67.1281C64.5353 67.193 64.4181 67.245 64.2682 67.2775L64.2617 67.271Z" fill="white"/>
<path d="M66.9912 68.3946C67.0564 68.5051 67.1476 68.5895 67.2583 68.6544C67.3691 68.7194 67.4928 68.7649 67.6296 68.7908C67.7664 68.8168 67.9097 68.8298 68.053 68.8298C68.1638 68.8298 68.281 68.8233 68.4048 68.8038C68.5286 68.7908 68.6458 68.7584 68.7501 68.7129C68.8543 68.6674 68.939 68.6025 69.0041 68.5115C69.0693 68.4271 69.1018 68.3167 69.1018 68.1803C69.1018 67.9984 69.0302 67.8555 68.8934 67.7581C68.7566 67.6672 68.5807 67.5892 68.3657 67.5308C68.1573 67.4723 67.9293 67.4203 67.6817 67.3684C67.4342 67.3229 67.2062 67.2515 66.9977 67.167C66.7893 67.0826 66.6134 66.9592 66.4701 66.8033C66.3333 66.6474 66.2616 66.4266 66.2616 66.1473C66.2616 65.9264 66.3072 65.7446 66.4049 65.5822C66.5027 65.4263 66.6264 65.2964 66.7828 65.199C66.9391 65.1016 67.1085 65.0301 67.3039 64.9781C67.4928 64.9327 67.6883 64.9067 67.8772 64.9067C68.1247 64.9067 68.3527 64.9262 68.5612 64.9717C68.7696 65.0106 68.952 65.0821 69.1149 65.1925C69.2777 65.2964 69.4015 65.4328 69.4992 65.6147C69.5969 65.79 69.6556 66.0109 69.6686 66.2707H68.952C68.939 66.1343 68.9064 66.0174 68.8413 65.92C68.7761 65.829 68.698 65.7511 68.6068 65.6991C68.5091 65.6407 68.4048 65.6017 68.2941 65.5757C68.1768 65.5497 68.0596 65.5367 67.9423 65.5367C67.8381 65.5367 67.7273 65.5432 67.6166 65.5627C67.5059 65.5757 67.4081 65.6082 67.3169 65.6472C67.2257 65.6861 67.1541 65.7446 67.102 65.816C67.0433 65.8875 67.0173 65.9784 67.0173 66.0888C67.0173 66.2122 67.0629 66.3162 67.1476 66.3941C67.2323 66.472 67.343 66.5435 67.4798 66.5955C67.6166 66.6474 67.7664 66.6929 67.9358 66.7254C68.1052 66.7643 68.2745 66.8033 68.4439 66.8358C68.6263 66.8748 68.8022 66.9202 68.9716 66.9787C69.1409 67.0371 69.2973 67.1086 69.4276 67.1995C69.5644 67.2904 69.6686 67.4074 69.7468 67.5503C69.8315 67.6931 69.8705 67.862 69.8705 68.0699C69.8705 68.3297 69.8184 68.5505 69.7077 68.7259C69.5969 68.9013 69.4536 69.0442 69.2777 69.1481C69.1019 69.252 68.8999 69.3299 68.6784 69.3689C68.4569 69.4079 68.2355 69.4339 68.0205 69.4339C67.7795 69.4339 67.5515 69.4079 67.33 69.3559C67.115 69.304 66.9196 69.226 66.7502 69.1091C66.5808 68.9922 66.4505 68.8428 66.3463 68.6544C66.2486 68.4661 66.19 68.2387 66.1769 67.9724H66.8935C66.8935 68.1283 66.9326 68.2647 67.0043 68.3687L66.9912 68.3946Z" fill="white"/>
<path d="M72.5218 65.0236V65.6536H71.6554V68.3492C71.6554 68.4336 71.6619 68.4986 71.675 68.5505C71.688 68.6025 71.714 68.6414 71.7531 68.6674C71.7922 68.6934 71.8443 68.7129 71.916 68.7259C71.9876 68.7324 72.0788 68.7389 72.1896 68.7389H72.5153V69.3689H71.9681C71.7857 69.3689 71.6228 69.3559 71.4926 69.3299C71.3623 69.304 71.2515 69.2585 71.1733 69.1935C71.0952 69.1221 71.03 69.0312 70.991 68.9077C70.9519 68.7843 70.9323 68.622 70.9323 68.4206V65.6601H70.1897V65.0301H70.9323V63.7311H71.6489V65.0301H72.5153L72.5218 65.0236Z" fill="white"/>
<path d="M73.3557 64.2442V63.3738H74.0722V64.2442H73.3557ZM74.0722 65.0236V69.3624H73.3557V65.0236H74.0722Z" fill="white"/>
<path d="M77.7788 65.7771C77.5964 65.6277 77.3554 65.5497 77.0557 65.5497C76.7952 65.5497 76.5802 65.5952 76.4043 65.6926C76.2349 65.79 76.0916 65.9135 75.9874 66.0693C75.8832 66.2252 75.805 66.4071 75.7659 66.6084C75.7203 66.8163 75.6943 67.0241 75.6943 67.245C75.6943 67.4463 75.7203 67.6412 75.7659 67.8295C75.8115 68.0179 75.8897 68.1933 75.9874 68.3427C76.0851 68.4921 76.2219 68.609 76.3848 68.6999C76.5476 68.7908 76.7431 68.8363 76.9645 68.8363C77.3163 68.8363 77.5899 68.7454 77.7919 68.557C77.9938 68.3686 78.1111 68.1088 78.1567 67.7776H78.8863C78.8081 68.3167 78.6061 68.7324 78.2869 69.0247C77.9612 69.3169 77.5248 69.4598 76.9711 69.4598C76.6388 69.4598 76.3457 69.4079 76.0916 69.2975C75.8376 69.1935 75.6226 69.0441 75.4532 68.8428C75.2839 68.6479 75.1536 68.4141 75.0689 68.1413C74.9842 67.8685 74.9386 67.5697 74.9386 67.245C74.9386 66.9202 74.9777 66.6149 75.0624 66.3356C75.1471 66.0563 75.2708 65.8095 75.4467 65.5952C75.6161 65.3873 75.8311 65.2185 76.0916 65.1016C76.3522 64.9781 76.6519 64.9197 76.9906 64.9197C77.2381 64.9197 77.4661 64.9522 77.6876 65.0106C77.9026 65.0691 78.0915 65.16 78.2609 65.2834C78.4303 65.4068 78.5605 65.5627 78.6713 65.7511C78.782 65.9394 78.8472 66.1603 78.8732 66.4201H78.1306C78.072 66.1473 77.9547 65.9329 77.7788 65.7836V65.7771Z" fill="white"/>
<path d="M86.1106 63.3673V64.0428H82.9642V65.9459H85.7263V66.6214H82.9642V69.3689H82.163V63.3738H86.1106V63.3673Z" fill="white"/>
<path d="M89.8042 69.3624V68.6739H89.7846C89.6348 68.9402 89.4394 69.1416 89.2049 69.265C88.9703 69.3884 88.6902 69.4533 88.371 69.4533C88.0844 69.4533 87.8434 69.4144 87.6545 69.3429C87.4655 69.265 87.3092 69.1611 87.1919 69.0182C87.0747 68.8753 86.99 68.7129 86.9444 68.518C86.8923 68.3232 86.8727 68.1088 86.8727 67.875V65.0171H87.5893V67.9594C87.5893 68.2257 87.6675 68.4401 87.8238 68.596C87.9802 68.7519 88.1951 68.8298 88.4687 68.8298C88.6902 68.8298 88.8791 68.7973 89.0355 68.7259C89.1983 68.6609 89.3286 68.5635 89.4394 68.4401C89.5436 68.3167 89.6283 68.1738 89.6804 68.0049C89.7325 67.8425 89.7586 67.6607 89.7586 67.4658V65.0171H90.4751V69.3559H89.7977L89.8042 69.3624Z" fill="white"/>
<path d="M93.4196 65.0236V65.6536H92.5532V68.3492C92.5532 68.4336 92.5597 68.4986 92.5727 68.5505C92.5858 68.6025 92.6118 68.6414 92.6509 68.6674C92.69 68.6934 92.7486 68.7129 92.8138 68.7259C92.8854 68.7324 92.9766 68.7389 93.0874 68.7389H93.4196V69.3689H92.8724C92.69 69.3689 92.5271 69.3559 92.3968 69.3299C92.26 69.304 92.1558 69.2585 92.0776 69.1935C91.9995 69.1221 91.9343 69.0312 91.8952 68.9077C91.8562 68.7843 91.8366 68.622 91.8366 68.4206V65.6601H91.094V65.0301H91.8366V63.7311H92.5532V65.0301H93.4196V65.0236Z" fill="white"/>
<path d="M97.1392 69.3624V68.6739H97.1197C96.9699 68.9402 96.7744 69.1416 96.5399 69.265C96.3054 69.3884 96.0253 69.4533 95.7061 69.4533C95.4195 69.4533 95.185 69.4144 94.9895 69.3429C94.8006 69.265 94.6443 69.1611 94.527 69.0182C94.4098 68.8753 94.3251 68.7129 94.2795 68.518C94.2339 68.3232 94.2078 68.1088 94.2078 67.875V65.0171H94.9244V67.9594C94.9244 68.2257 95.0026 68.4401 95.1589 68.596C95.3152 68.7519 95.5302 68.8298 95.8103 68.8298C96.0318 68.8298 96.2142 68.7973 96.3771 68.7259C96.5399 68.6609 96.6702 68.5635 96.781 68.4401C96.8917 68.3167 96.9699 68.1738 97.022 68.0049C97.0741 67.8425 97.1002 67.6607 97.1002 67.4658V65.0171H97.8167V69.3559H97.1392V69.3624Z" fill="white"/>
<path d="M99.543 65.0236V65.9394H99.5626C99.7384 65.5822 99.9469 65.3289 100.201 65.16C100.455 64.9911 100.774 64.9132 101.159 64.9262V65.6796C100.872 65.6796 100.631 65.7186 100.422 65.7965C100.22 65.8745 100.058 65.9914 99.9339 66.1408C99.8036 66.2902 99.7189 66.472 99.6603 66.6929C99.6081 66.9072 99.5756 67.154 99.5756 67.4333V69.3624H98.859V65.0236H99.53H99.543Z" fill="white"/>
<path d="M104.631 69.0896C104.305 69.3364 103.895 69.4598 103.399 69.4598C103.054 69.4598 102.748 69.4079 102.494 69.291C102.24 69.1806 102.025 69.0247 101.849 68.8233C101.673 68.622 101.549 68.3816 101.458 68.1023C101.374 67.8231 101.321 67.5178 101.315 67.1865C101.315 66.8553 101.367 66.5565 101.465 66.2772C101.569 66.0044 101.712 65.7641 101.888 65.5627C102.071 65.3614 102.286 65.2055 102.533 65.0951C102.781 64.9846 103.054 64.9262 103.354 64.9262C103.738 64.9262 104.064 65.0041 104.318 65.1665C104.572 65.3289 104.78 65.5302 104.93 65.7771C105.087 66.0239 105.191 66.2902 105.25 66.5825C105.308 66.8748 105.334 67.154 105.321 67.4139H102.064C102.064 67.6022 102.084 67.7841 102.129 67.953C102.181 68.1283 102.259 68.2777 102.377 68.4076C102.487 68.5375 102.631 68.6415 102.807 68.7194C102.983 68.7973 103.184 68.8363 103.419 68.8363C103.725 68.8363 103.973 68.7649 104.168 68.6285C104.357 68.4921 104.487 68.2777 104.552 67.9919H105.263C105.165 68.4791 104.956 68.8493 104.631 69.0961V69.0896ZM104.455 66.2967C104.39 66.1473 104.305 66.0174 104.201 65.907C104.09 65.7965 103.96 65.7121 103.81 65.6472C103.66 65.5822 103.497 65.5497 103.315 65.5497C103.132 65.5497 102.963 65.5822 102.813 65.6472C102.663 65.7121 102.533 65.7965 102.429 65.9135C102.325 66.0239 102.24 66.1538 102.175 66.3032C102.11 66.4526 102.077 66.6084 102.064 66.7773H104.566C104.552 66.6084 104.52 66.4526 104.448 66.2967H104.455Z" fill="white"/>
<path d="M107.972 65.6536V65.0236H108.702V64.3741C108.702 64.0233 108.806 63.757 109.008 63.5752C109.21 63.3933 109.51 63.3024 109.907 63.3024C109.972 63.3024 110.051 63.3024 110.135 63.3219C110.226 63.3349 110.298 63.3478 110.37 63.3738V63.9974C110.305 63.9779 110.239 63.9584 110.168 63.9519C110.096 63.9454 110.024 63.9389 109.966 63.9389C109.79 63.9389 109.66 63.9714 109.562 64.0428C109.464 64.1078 109.419 64.2377 109.419 64.4261V65.0301H110.259V65.6601H109.419V69.3689H108.702V65.6601H107.972V65.6536Z" fill="white"/>
<path d="M110.8 66.3032C110.891 66.0304 111.028 65.7836 111.204 65.5822C111.386 65.3809 111.607 65.2185 111.868 65.1016C112.129 64.9846 112.435 64.9262 112.78 64.9262C113.125 64.9262 113.431 64.9846 113.692 65.1016C113.953 65.2185 114.174 65.3809 114.356 65.5822C114.539 65.7901 114.669 66.0304 114.76 66.3032C114.852 66.5825 114.897 66.8812 114.897 67.1995C114.897 67.5178 114.852 67.8166 114.76 68.0894C114.669 68.3622 114.539 68.6025 114.356 68.8038C114.174 69.0052 113.953 69.1676 113.692 69.2845C113.431 69.3949 113.125 69.4534 112.78 69.4534C112.435 69.4534 112.135 69.3949 111.868 69.2845C111.607 69.1676 111.386 69.0117 111.204 68.8038C111.021 68.6025 110.891 68.3622 110.8 68.0894C110.709 67.8166 110.663 67.5178 110.663 67.1995C110.663 66.8812 110.709 66.5825 110.8 66.3032ZM111.529 67.901C111.601 68.1023 111.699 68.2777 111.822 68.4141C111.946 68.5505 112.09 68.6544 112.252 68.7324C112.422 68.8038 112.598 68.8428 112.78 68.8428C112.962 68.8428 113.138 68.8038 113.308 68.7324C113.477 68.6609 113.62 68.557 113.744 68.4141C113.868 68.2777 113.966 68.1023 114.037 67.901C114.109 67.6931 114.142 67.4593 114.142 67.1995C114.142 66.9397 114.109 66.6994 114.037 66.498C113.966 66.2967 113.868 66.1213 113.744 65.9849C113.62 65.842 113.477 65.7381 113.308 65.6666C113.145 65.5952 112.969 65.5562 112.78 65.5562C112.591 65.5562 112.422 65.5952 112.252 65.6666C112.09 65.7381 111.94 65.842 111.822 65.9849C111.699 66.1213 111.601 66.2967 111.529 66.498C111.458 66.6994 111.425 66.9332 111.425 67.1995C111.425 67.4658 111.458 67.6931 111.529 67.901Z" fill="white"/>
<path d="M116.382 65.0236V65.9394H116.402C116.578 65.5822 116.793 65.3289 117.04 65.16C117.294 64.9911 117.614 64.9132 118.004 64.9262V65.6796C117.718 65.6796 117.477 65.7186 117.275 65.7965C117.073 65.8745 116.91 65.9914 116.786 66.1408C116.663 66.2902 116.571 66.472 116.519 66.6929C116.461 66.9072 116.435 67.154 116.435 67.4333V69.3624H115.718V65.0236H116.389H116.382Z" fill="white"/>
<path d="M123.574 63.3673L125.926 69.3624H125.04L124.382 67.5568H121.835L121.157 69.3624H120.343L122.682 63.3673H123.568H123.574ZM124.134 66.8877L123.131 64.0883H123.112L122.089 66.8877H124.128H124.134Z" fill="white"/>
<path d="M127.58 63.3673V69.3624H126.864V63.3673H127.58Z" fill="white"/>
<path d="M129.6 63.3673V69.3624H128.883V63.3673H129.6Z" fill="white"/>
</g>
<defs>
<clipPath id="clip0_1_693">
<rect width="129.106" height="74" fill="white" transform="translate(0.5)"/>
</clipPath>
</defs>
</svg>
